{
	"patcher" : 	{
		"fileversion" : 1,
		"appversion" : 		{
			"major" : 7,
			"minor" : 0,
			"revision" : 1,
			"architecture" : "x86",
			"modernui" : 1
		}
,
		"rect" : [ 386.0, 45.0, 948.0, 1011.0 ],
		"bgcolor" : [ 0.0, 0.0, 0.0, 1.0 ],
		"editing_bgcolor" : [ 0.65098, 0.666667, 0.662745, 1.0 ],
		"bglocked" : 0,
		"openinpresentation" : 1,
		"default_fontsize" : 12.0,
		"default_fontface" : 0,
		"default_fontname" : "Arial",
		"gridonopen" : 1,
		"gridsize" : [ 15.0, 15.0 ],
		"gridsnaponopen" : 1,
		"objectsnaponopen" : 1,
		"statusbarvisible" : 2,
		"toolbarvisible" : 0,
		"lefttoolbarpinned" : 0,
		"toptoolbarpinned" : 0,
		"righttoolbarpinned" : 0,
		"bottomtoolbarpinned" : 0,
		"toolbars_unpinned_last_save" : 0,
		"tallnewobj" : 0,
		"boxanimatetime" : 200,
		"enablehscroll" : 0,
		"enablevscroll" : 0,
		"devicewidth" : 0.0,
		"description" : "",
		"digest" : "",
		"tags" : "",
		"style" : "",
		"subpatcher_template" : "",
		"boxes" : [ 			{
				"box" : 				{
					"autofit" : 1,
					"forceaspect" : 1,
					"id" : "obj-54",
					"ignoreclick" : 1,
					"maxclass" : "fpic",
					"numinlets" : 1,
					"numoutlets" : 1,
					"outlettype" : [ "jit_matrix" ],
					"patching_rect" : [ 688.0, 610.0, 100.0, 100.0 ],
					"pic" : "Macintosh HD:/Users/tado/Documents/of_v0.8.4_osx_release/apps/FM14New/FyamaWinter14/bin/data/sticon/st38.jpg",
					"presentation" : 1,
					"presentation_rect" : [ 585.0, 540.0, 105.0, 105.0 ]
				}

			}
, 			{
				"box" : 				{
					"autofit" : 1,
					"forceaspect" : 1,
					"id" : "obj-42",
					"ignoreclick" : 1,
					"maxclass" : "fpic",
					"numinlets" : 1,
					"numoutlets" : 1,
					"outlettype" : [ "jit_matrix" ],
					"patching_rect" : [ 673.0, 595.0, 100.0, 100.0 ],
					"pic" : "Macintosh HD:/Users/tado/Documents/of_v0.8.4_osx_release/apps/FM14New/FyamaWinter14/bin/data/sticon/st37.jpg",
					"presentation" : 1,
					"presentation_rect" : [ 480.0, 540.0, 105.0, 105.0 ]
				}

			}
, 			{
				"box" : 				{
					"autofit" : 1,
					"forceaspect" : 1,
					"id" : "obj-40",
					"ignoreclick" : 1,
					"maxclass" : "fpic",
					"numinlets" : 1,
					"numoutlets" : 1,
					"outlettype" : [ "jit_matrix" ],
					"patching_rect" : [ 658.0, 580.0, 100.0, 100.0 ],
					"pic" : "Macintosh HD:/Users/tado/Documents/of_v0.8.4_osx_release/apps/FM14New/FyamaWinter14/bin/data/sticon/st36.jpg",
					"presentation" : 1,
					"presentation_rect" : [ 375.0, 540.0, 105.0, 105.0 ]
				}

			}
, 			{
				"box" : 				{
					"autofit" : 1,
					"forceaspect" : 1,
					"id" : "obj-39",
					"ignoreclick" : 1,
					"maxclass" : "fpic",
					"numinlets" : 1,
					"numoutlets" : 1,
					"outlettype" : [ "jit_matrix" ],
					"patching_rect" : [ 643.0, 565.0, 100.0, 100.0 ],
					"pic" : "Macintosh HD:/Users/tado/Documents/of_v0.8.4_osx_release/apps/FM14New/FyamaWinter14/bin/data/sticon/st35.jpg",
					"presentation" : 1,
					"presentation_rect" : [ 270.0, 540.0, 105.0, 105.0 ]
				}

			}
, 			{
				"box" : 				{
					"autofit" : 1,
					"forceaspect" : 1,
					"id" : "obj-36",
					"ignoreclick" : 1,
					"maxclass" : "fpic",
					"numinlets" : 1,
					"numoutlets" : 1,
					"outlettype" : [ "jit_matrix" ],
					"patching_rect" : [ 628.0, 550.0, 100.0, 100.0 ],
					"pic" : "Macintosh HD:/Users/tado/Documents/of_v0.8.4_osx_release/apps/FM14New/FyamaWinter14/bin/data/sticon/st34.jpg",
					"presentation" : 1,
					"presentation_rect" : [ 165.0, 540.0, 105.0, 105.0 ]
				}

			}
, 			{
				"box" : 				{
					"autofit" : 1,
					"forceaspect" : 1,
					"id" : "obj-32",
					"ignoreclick" : 1,
					"maxclass" : "fpic",
					"numinlets" : 1,
					"numoutlets" : 1,
					"outlettype" : [ "jit_matrix" ],
					"patching_rect" : [ 613.0, 535.0, 100.0, 100.0 ],
					"pic" : "Macintosh HD:/Users/tado/Documents/of_v0.8.4_osx_release/apps/FM14New/FyamaWinter14/bin/data/sticon/st33.jpg",
					"presentation" : 1,
					"presentation_rect" : [ 60.0, 540.0, 105.0, 105.0 ]
				}

			}
, 			{
				"box" : 				{
					"autofit" : 1,
					"forceaspect" : 1,
					"id" : "obj-108",
					"ignoreclick" : 1,
					"maxclass" : "fpic",
					"numinlets" : 1,
					"numoutlets" : 1,
					"outlettype" : [ "jit_matrix" ],
					"patching_rect" : [ 1243.0, 438.0, 100.0, 100.0 ],
					"pic" : "Macintosh HD:/Users/tado/Documents/of_v0.8.4_osx_release/apps/Fukuyama14/FyamaWinter14/bin/data/sticon/st32.jpg",
					"presentation" : 1,
					"presentation_rect" : [ 690.0, 435.0, 105.0, 105.0 ]
				}

			}
, 			{
				"box" : 				{
					"autofit" : 1,
					"forceaspect" : 1,
					"id" : "obj-107",
					"ignoreclick" : 1,
					"maxclass" : "fpic",
					"numinlets" : 1,
					"numoutlets" : 1,
					"outlettype" : [ "jit_matrix" ],
					"patching_rect" : [ 598.0, 520.0, 100.0, 100.0 ],
					"pic" : "Macintosh HD:/Users/tado/Documents/of_v0.8.4_osx_release/apps/Fukuyama14/FyamaWinter14/bin/data/sticon/st31.jpg",
					"presentation" : 1,
					"presentation_rect" : [ 60.0, 435.0, 105.0, 105.0 ]
				}

			}
, 			{
				"box" : 				{
					"autofit" : 1,
					"forceaspect" : 1,
					"id" : "obj-106",
					"ignoreclick" : 1,
					"maxclass" : "fpic",
					"numinlets" : 1,
					"numoutlets" : 1,
					"outlettype" : [ "jit_matrix" ],
					"patching_rect" : [ 1228.0, 423.0, 100.0, 100.0 ],
					"pic" : "Macintosh HD:/Users/tado/Documents/of_v0.8.4_osx_release/apps/Fukuyama14/FyamaWinter14/bin/data/sticon/st11.jpg",
					"presentation" : 1,
					"presentation_rect" : [ 585.0, 435.0, 105.0, 105.0 ]
				}

			}
, 			{
				"box" : 				{
					"autofit" : 1,
					"forceaspect" : 1,
					"id" : "obj-105",
					"ignoreclick" : 1,
					"maxclass" : "fpic",
					"numinlets" : 1,
					"numoutlets" : 1,
					"outlettype" : [ "jit_matrix" ],
					"patching_rect" : [ 1214.0, 620.0, 100.0, 100.0 ],
					"pic" : "Macintosh HD:/Users/tado/Documents/of_v0.8.4_osx_release/apps/Fukuyama14/FyamaWinter14/bin/data/sticon/st12.jpg",
					"presentation" : 1,
					"presentation_rect" : [ 480.0, 435.0, 105.0, 105.0 ]
				}

			}
, 			{
				"box" : 				{
					"autofit" : 1,
					"forceaspect" : 1,
					"id" : "obj-94",
					"ignoreclick" : 1,
					"maxclass" : "fpic",
					"numinlets" : 1,
					"numoutlets" : 1,
					"outlettype" : [ "jit_matrix" ],
					"patching_rect" : [ 724.0, 388.0, 100.0, 100.0 ],
					"pic" : "Macintosh HD:/Users/tado/Documents/of_v0.8.4_osx_release/apps/Fukuyama14/FyamaWinter14/bin/data/sticon/st20.jpg",
					"presentation" : 1,
					"presentation_rect" : [ 165.0, 435.0, 105.0, 105.0 ]
				}

			}
, 			{
				"box" : 				{
					"autofit" : 1,
					"forceaspect" : 1,
					"id" : "obj-104",
					"ignoreclick" : 1,
					"maxclass" : "fpic",
					"numinlets" : 1,
					"numoutlets" : 1,
					"outlettype" : [ "jit_matrix" ],
					"patching_rect" : [ 643.0, 576.0, 100.0, 100.0 ],
					"pic" : "Macintosh HD:/Users/tado/Documents/of_v0.8.4_osx_release/apps/Fukuyama14/FyamaWinter14/bin/data/sticon/st19.jpg",
					"presentation" : 1,
					"presentation_rect" : [ 375.0, 435.0, 105.0, 105.0 ]
				}

			}
, 			{
				"box" : 				{
					"autofit" : 1,
					"forceaspect" : 1,
					"id" : "obj-31",
					"ignoreclick" : 1,
					"maxclass" : "fpic",
					"numinlets" : 1,
					"numoutlets" : 1,
					"outlettype" : [ "jit_matrix" ],
					"patching_rect" : [ 724.0, 388.0, 100.0, 100.0 ],
					"pic" : "Macintosh HD:/Users/tado/Documents/of_v0.8.4_osx_release/apps/Fukuyama14/FyamaWinter14/bin/data/sticon/st30.jpg",
					"presentation" : 1,
					"presentation_rect" : [ 480.0, 330.0, 105.0, 105.0 ]
				}

			}
, 			{
				"box" : 				{
					"autofit" : 1,
					"forceaspect" : 1,
					"id" : "obj-103",
					"ignoreclick" : 1,
					"maxclass" : "fpic",
					"numinlets" : 1,
					"numoutlets" : 1,
					"outlettype" : [ "jit_matrix" ],
					"patching_rect" : [ 254.0, 603.0, 100.0, 100.0 ],
					"pic" : "Macintosh HD:/Users/tado/Documents/of_v0.8.4_osx_release/apps/Fukuyama14/FyamaWinter14/bin/data/sticon/st29.jpg",
					"presentation" : 1,
					"presentation_rect" : [ 165.0, 330.0, 105.0, 105.0 ]
				}

			}
, 			{
				"box" : 				{
					"fontname" : "Helvetica Neue",
					"fontsize" : 24.0,
					"id" : "obj-102",
					"maxclass" : "comment",
					"numinlets" : 1,
					"numoutlets" : 0,
					"patching_rect" : [ 135.0, 90.0, 290.0, 34.0 ],
					"presentation" : 1,
					"presentation_rect" : [ 15.0, 575.5, 30.0, 34.0 ],
					"style" : "",
					"text" : "E",
					"textcolor" : [ 1.0, 1.0, 1.0, 1.0 ],
					"textjustification" : 1
				}

			}
, 			{
				"box" : 				{
					"fontname" : "Helvetica Neue",
					"fontsize" : 24.0,
					"id" : "obj-101",
					"maxclass" : "comment",
					"numinlets" : 1,
					"numoutlets" : 0,
					"patching_rect" : [ 120.0, 75.0, 290.0, 34.0 ],
					"presentation" : 1,
					"presentation_rect" : [ 15.0, 470.5, 30.0, 34.0 ],
					"style" : "",
					"text" : "D",
					"textcolor" : [ 1.0, 1.0, 1.0, 1.0 ],
					"textjustification" : 1
				}

			}
, 			{
				"box" : 				{
					"fontname" : "Helvetica Neue",
					"fontsize" : 24.0,
					"id" : "obj-100",
					"maxclass" : "comment",
					"numinlets" : 1,
					"numoutlets" : 0,
					"patching_rect" : [ 105.0, 60.0, 290.0, 34.0 ],
					"presentation" : 1,
					"presentation_rect" : [ 15.0, 365.5, 30.0, 34.0 ],
					"style" : "",
					"text" : "C",
					"textcolor" : [ 1.0, 1.0, 1.0, 1.0 ],
					"textjustification" : 1
				}

			}
, 			{
				"box" : 				{
					"fontname" : "Helvetica Neue",
					"fontsize" : 24.0,
					"id" : "obj-99",
					"maxclass" : "comment",
					"numinlets" : 1,
					"numoutlets" : 0,
					"patching_rect" : [ 90.0, 45.0, 290.0, 34.0 ],
					"presentation" : 1,
					"presentation_rect" : [ 15.0, 255.0, 30.0, 34.0 ],
					"style" : "",
					"text" : "B",
					"textcolor" : [ 1.0, 1.0, 1.0, 1.0 ],
					"textjustification" : 1
				}

			}
, 			{
				"box" : 				{
					"fontname" : "Helvetica Neue",
					"fontsize" : 24.0,
					"id" : "obj-98",
					"maxclass" : "comment",
					"numinlets" : 1,
					"numoutlets" : 0,
					"patching_rect" : [ 75.0, 30.0, 290.0, 34.0 ],
					"presentation" : 1,
					"presentation_rect" : [ 15.0, 155.5, 30.0, 34.0 ],
					"style" : "",
					"text" : "A",
					"textcolor" : [ 1.0, 1.0, 1.0, 1.0 ],
					"textjustification" : 1
				}

			}
, 			{
				"box" : 				{
					"fontname" : "Helvetica Neue",
					"fontsize" : 24.0,
					"id" : "obj-92",
					"maxclass" : "comment",
					"numinlets" : 1,
					"numoutlets" : 0,
					"patching_rect" : [ 105.0, 60.0, 290.0, 34.0 ],
					"presentation" : 1,
					"presentation_rect" : [ 832.5, 84.0, 30.0, 34.0 ],
					"style" : "",
					"text" : "8",
					"textcolor" : [ 1.0, 1.0, 1.0, 1.0 ],
					"textjustification" : 1
				}

			}
, 			{
				"box" : 				{
					"fontname" : "Helvetica Neue",
					"fontsize" : 24.0,
					"id" : "obj-95",
					"maxclass" : "comment",
					"numinlets" : 1,
					"numoutlets" : 0,
					"patching_rect" : [ 90.0, 45.0, 290.0, 34.0 ],
					"presentation" : 1,
					"presentation_rect" : [ 727.5, 84.0, 30.0, 34.0 ],
					"style" : "",
					"text" : "7",
					"textcolor" : [ 1.0, 1.0, 1.0, 1.0 ],
					"textjustification" : 1
				}

			}
, 			{
				"box" : 				{
					"fontname" : "Helvetica Neue",
					"fontsize" : 24.0,
					"id" : "obj-96",
					"maxclass" : "comment",
					"numinlets" : 1,
					"numoutlets" : 0,
					"patching_rect" : [ 90.0, 45.0, 290.0, 34.0 ],
					"presentation" : 1,
					"presentation_rect" : [ 622.5, 84.0, 30.0, 34.0 ],
					"style" : "",
					"text" : "6",
					"textcolor" : [ 1.0, 1.0, 1.0, 1.0 ],
					"textjustification" : 1
				}

			}
, 			{
				"box" : 				{
					"fontname" : "Helvetica Neue",
					"fontsize" : 24.0,
					"id" : "obj-97",
					"maxclass" : "comment",
					"numinlets" : 1,
					"numoutlets" : 0,
					"patching_rect" : [ 75.0, 30.0, 290.0, 34.0 ],
					"presentation" : 1,
					"presentation_rect" : [ 517.5, 84.0, 30.0, 34.0 ],
					"style" : "",
					"text" : "5",
					"textcolor" : [ 1.0, 1.0, 1.0, 1.0 ],
					"textjustification" : 1
				}

			}
, 			{
				"box" : 				{
					"fontname" : "Helvetica Neue",
					"fontsize" : 24.0,
					"id" : "obj-56",
					"maxclass" : "comment",
					"numinlets" : 1,
					"numoutlets" : 0,
					"patching_rect" : [ 90.0, 45.0, 290.0, 34.0 ],
					"presentation" : 1,
					"presentation_rect" : [ 412.5, 84.0, 30.0, 34.0 ],
					"style" : "",
					"text" : "4",
					"textcolor" : [ 1.0, 1.0, 1.0, 1.0 ],
					"textjustification" : 1
				}

			}
, 			{
				"box" : 				{
					"fontname" : "Helvetica Neue",
					"fontsize" : 24.0,
					"id" : "obj-59",
					"maxclass" : "comment",
					"numinlets" : 1,
					"numoutlets" : 0,
					"patching_rect" : [ 75.0, 30.0, 290.0, 34.0 ],
					"presentation" : 1,
					"presentation_rect" : [ 307.5, 84.0, 30.0, 34.0 ],
					"style" : "",
					"text" : "3",
					"textcolor" : [ 1.0, 1.0, 1.0, 1.0 ],
					"textjustification" : 1
				}

			}
, 			{
				"box" : 				{
					"fontname" : "Helvetica Neue",
					"fontsize" : 24.0,
					"id" : "obj-11",
					"maxclass" : "comment",
					"numinlets" : 1,
					"numoutlets" : 0,
					"patching_rect" : [ 75.0, 30.0, 290.0, 34.0 ],
					"presentation" : 1,
					"presentation_rect" : [ 202.5, 84.0, 30.0, 34.0 ],
					"style" : "",
					"text" : "2",
					"textcolor" : [ 1.0, 1.0, 1.0, 1.0 ],
					"textjustification" : 1
				}

			}
, 			{
				"box" : 				{
					"fontname" : "Helvetica Neue",
					"fontsize" : 24.0,
					"id" : "obj-5",
					"maxclass" : "comment",
					"numinlets" : 1,
					"numoutlets" : 0,
					"patching_rect" : [ 60.0, 15.0, 290.0, 34.0 ],
					"presentation" : 1,
					"presentation_rect" : [ 97.5, 84.0, 30.0, 34.0 ],
					"style" : "",
					"text" : "1",
					"textcolor" : [ 1.0, 1.0, 1.0, 1.0 ],
					"textjustification" : 1
				}

			}
, 			{
				"box" : 				{
					"autofit" : 1,
					"forceaspect" : 1,
					"id" : "obj-55",
					"ignoreclick" : 1,
					"maxclass" : "fpic",
					"numinlets" : 1,
					"numoutlets" : 1,
					"outlettype" : [ "jit_matrix" ],
					"patching_rect" : [ 583.0, 505.0, 100.0, 100.0 ],
					"pic" : "Macintosh HD:/Users/tado/Documents/of_v0.8.4_osx_release/apps/Fukuyama14/FyamaWinter14/bin/data/sticon/st26.jpg",
					"presentation" : 1,
					"presentation_rect" : [ 270.0, 435.0, 105.0, 105.0 ]
				}

			}
, 			{
				"box" : 				{
					"autofit" : 1,
					"forceaspect" : 1,
					"id" : "obj-52",
					"ignoreclick" : 1,
					"maxclass" : "fpic",
					"numinlets" : 1,
					"numoutlets" : 1,
					"outlettype" : [ "jit_matrix" ],
					"patching_rect" : [ 239.0, 588.0, 100.0, 100.0 ],
					"pic" : "Macintosh HD:/Users/tado/Documents/of_v0.8.4_osx_release/apps/Fukuyama14/FyamaWinter14/bin/data/sticon/st24.jpg",
					"presentation" : 1,
					"presentation_rect" : [ 60.0, 330.0, 105.0, 105.0 ]
				}

			}
, 			{
				"box" : 				{
					"autofit" : 1,
					"forceaspect" : 1,
					"id" : "obj-51",
					"ignoreclick" : 1,
					"maxclass" : "fpic",
					"numinlets" : 1,
					"numoutlets" : 1,
					"outlettype" : [ "jit_matrix" ],
					"patching_rect" : [ 798.0, 616.0, 100.0, 100.0 ],
					"pic" : "Macintosh HD:/Users/tado/Documents/of_v0.8.4_osx_release/apps/Fukuyama14/FyamaWinter14/bin/data/sticon/st23.jpg",
					"presentation" : 1,
					"presentation_rect" : [ 1630.0, 715.0, 105.0, 105.0 ]
				}

			}
, 			{
				"box" : 				{
					"autofit" : 1,
					"forceaspect" : 1,
					"id" : "obj-50",
					"ignoreclick" : 1,
					"maxclass" : "fpic",
					"numinlets" : 1,
					"numoutlets" : 1,
					"outlettype" : [ "jit_matrix" ],
					"patching_rect" : [ 839.0, 436.0, 100.0, 100.0 ],
					"pic" : "Macintosh HD:/Users/tado/Documents/of_v0.8.4_osx_release/apps/Fukuyama14/FyamaWinter14/bin/data/sticon/st22.jpg",
					"presentation" : 1,
					"presentation_rect" : [ 690.0, 330.0, 105.0, 105.0 ]
				}

			}
, 			{
				"box" : 				{
					"autofit" : 1,
					"forceaspect" : 1,
					"id" : "obj-48",
					"ignoreclick" : 1,
					"maxclass" : "fpic",
					"numinlets" : 1,
					"numoutlets" : 1,
					"outlettype" : [ "jit_matrix" ],
					"patching_rect" : [ 810.0, 382.0, 100.0, 100.0 ],
					"pic" : "Macintosh HD:/Users/tado/Documents/of_v0.8.4_osx_release/apps/Fukuyama14/FyamaWinter14/bin/data/sticon/st28.jpg",
					"presentation" : 1,
					"presentation_rect" : [ 690.0, 540.0, 105.0, 105.0 ]
				}

			}
, 			{
				"box" : 				{
					"autofit" : 1,
					"forceaspect" : 1,
					"id" : "obj-47",
					"ignoreclick" : 1,
					"maxclass" : "fpic",
					"numinlets" : 1,
					"numoutlets" : 1,
					"outlettype" : [ "jit_matrix" ],
					"patching_rect" : [ 709.0, 373.0, 100.0, 100.0 ],
					"pic" : "Macintosh HD:/Users/tado/Documents/of_v0.8.4_osx_release/apps/Fukuyama14/FyamaWinter14/bin/data/sticon/st20.jpg",
					"presentation" : 1,
					"presentation_rect" : [ 375.0, 330.0, 105.0, 105.0 ]
				}

			}
, 			{
				"box" : 				{
					"autofit" : 1,
					"forceaspect" : 1,
					"id" : "obj-46",
					"ignoreclick" : 1,
					"maxclass" : "fpic",
					"numinlets" : 1,
					"numoutlets" : 1,
					"outlettype" : [ "jit_matrix" ],
					"patching_rect" : [ 628.0, 561.0, 100.0, 100.0 ],
					"pic" : "Macintosh HD:/Users/tado/Documents/of_v0.8.4_osx_release/apps/Fukuyama14/FyamaWinter14/bin/data/sticon/st19.jpg",
					"presentation" : 1,
					"presentation_rect" : [ 585.0, 330.0, 105.0, 105.0 ]
				}

			}
, 			{
				"box" : 				{
					"autofit" : 1,
					"forceaspect" : 1,
					"id" : "obj-33",
					"ignoreclick" : 1,
					"maxclass" : "fpic",
					"numinlets" : 1,
					"numoutlets" : 1,
					"outlettype" : [ "jit_matrix" ],
					"patching_rect" : [ 793.0, 684.0, 100.0, 100.0 ],
					"pic" : "Macintosh HD:/Users/tado/Documents/of_v0.8.4_osx_release/apps/Fukuyama14/FyamaWinter14/bin/data/sticon/st14.jpg",
					"presentation" : 1,
					"presentation_rect" : [ 270.0, 330.0, 105.0, 105.0 ]
				}

			}
, 			{
				"box" : 				{
					"autofit" : 1,
					"forceaspect" : 1,
					"id" : "obj-27",
					"ignoreclick" : 1,
					"maxclass" : "fpic",
					"numinlets" : 1,
					"numoutlets" : 1,
					"outlettype" : [ "jit_matrix" ],
					"patching_rect" : [ 1222.0, 846.0, 100.0, 100.0 ],
					"pic" : "Macintosh HD:/Users/tado/Documents/of_v0.8.4_osx_release/apps/Fukuyama14/FyamaWinter14/bin/data/sticon/st13.jpg",
					"presentation" : 1,
					"presentation_rect" : [ 690.0, 225.0, 105.0, 105.0 ]
				}

			}
, 			{
				"box" : 				{
					"autofit" : 1,
					"forceaspect" : 1,
					"id" : "obj-25",
					"ignoreclick" : 1,
					"maxclass" : "fpic",
					"numinlets" : 1,
					"numoutlets" : 1,
					"outlettype" : [ "jit_matrix" ],
					"patching_rect" : [ 1199.0, 605.0, 100.0, 100.0 ],
					"pic" : "Macintosh HD:/Users/tado/Documents/of_v0.8.4_osx_release/apps/Fukuyama14/FyamaWinter14/bin/data/sticon/st12.jpg",
					"presentation" : 1,
					"presentation_rect" : [ 480.0, 225.0, 105.0, 105.0 ]
				}

			}
, 			{
				"box" : 				{
					"autofit" : 1,
					"forceaspect" : 1,
					"id" : "obj-24",
					"ignoreclick" : 1,
					"maxclass" : "fpic",
					"numinlets" : 1,
					"numoutlets" : 1,
					"outlettype" : [ "jit_matrix" ],
					"patching_rect" : [ 1213.0, 408.0, 100.0, 100.0 ],
					"pic" : "Macintosh HD:/Users/tado/Documents/of_v0.8.4_osx_release/apps/Fukuyama14/FyamaWinter14/bin/data/sticon/st11.jpg",
					"presentation" : 1,
					"presentation_rect" : [ 585.0, 225.0, 105.0, 105.0 ]
				}

			}
, 			{
				"box" : 				{
					"autofit" : 1,
					"forceaspect" : 1,
					"id" : "obj-23",
					"ignoreclick" : 1,
					"maxclass" : "fpic",
					"numinlets" : 1,
					"numoutlets" : 1,
					"outlettype" : [ "jit_matrix" ],
					"patching_rect" : [ 1130.0, 183.0, 100.0, 100.0 ],
					"pic" : "Macintosh HD:/Users/tado/Documents/of_v0.8.4_osx_release/apps/Fukuyama14/FyamaWinter14/bin/data/sticon/st10.jpg",
					"presentation" : 1,
					"presentation_rect" : [ 375.0, 225.0, 105.0, 105.0 ]
				}

			}
, 			{
				"box" : 				{
					"autofit" : 1,
					"forceaspect" : 1,
					"id" : "obj-21",
					"ignoreclick" : 1,
					"maxclass" : "fpic",
					"numinlets" : 1,
					"numoutlets" : 1,
					"outlettype" : [ "jit_matrix" ],
					"patching_rect" : [ 1242.0, 414.0, 100.0, 100.0 ],
					"pic" : "Macintosh HD:/Users/tado/Documents/of_v0.8.4_osx_release/apps/Fukuyama14/FyamaWinter14/bin/data/sticon/st2.jpg",
					"presentation" : 1,
					"presentation_rect" : [ 270.0, 120.0, 105.0, 105.0 ]
				}

			}
, 			{
				"box" : 				{
					"autofit" : 1,
					"forceaspect" : 1,
					"id" : "obj-20",
					"ignoreclick" : 1,
					"maxclass" : "fpic",
					"numinlets" : 1,
					"numoutlets" : 1,
					"outlettype" : [ "jit_matrix" ],
					"patching_rect" : [ 1207.0, 855.0, 100.0, 100.0 ],
					"pic" : "Macintosh HD:/Users/tado/Documents/of_v0.8.4_osx_release/apps/Fukuyama14/FyamaWinter14/bin/data/sticon/st9.jpg",
					"presentation" : 1,
					"presentation_rect" : [ 270.0, 225.0, 105.0, 105.0 ]
				}

			}
, 			{
				"box" : 				{
					"autofit" : 1,
					"forceaspect" : 1,
					"id" : "obj-19",
					"ignoreclick" : 1,
					"maxclass" : "fpic",
					"numinlets" : 1,
					"numoutlets" : 1,
					"outlettype" : [ "jit_matrix" ],
					"patching_rect" : [ 1181.0, 655.0, 100.0, 100.0 ],
					"pic" : "Macintosh HD:/Users/tado/Documents/of_v0.8.4_osx_release/apps/Fukuyama14/FyamaWinter14/bin/data/sticon/st8.jpg",
					"presentation" : 1,
					"presentation_rect" : [ 165.0, 225.0, 105.0, 105.0 ]
				}

			}
, 			{
				"box" : 				{
					"autofit" : 1,
					"forceaspect" : 1,
					"id" : "obj-18",
					"ignoreclick" : 1,
					"maxclass" : "fpic",
					"numinlets" : 1,
					"numoutlets" : 1,
					"outlettype" : [ "jit_matrix" ],
					"patching_rect" : [ 1172.0, 481.0, 100.0, 100.0 ],
					"pic" : "Macintosh HD:/Users/tado/Documents/of_v0.8.4_osx_release/apps/Fukuyama14/FyamaWinter14/bin/data/sticon/st7.jpg",
					"presentation" : 1,
					"presentation_rect" : [ 60.0, 225.0, 105.0, 105.0 ]
				}

			}
, 			{
				"box" : 				{
					"autofit" : 1,
					"forceaspect" : 1,
					"id" : "obj-17",
					"ignoreclick" : 1,
					"maxclass" : "fpic",
					"numinlets" : 1,
					"numoutlets" : 1,
					"outlettype" : [ "jit_matrix" ],
					"patching_rect" : [ 1201.0, 272.0, 100.0, 100.0 ],
					"pic" : "Macintosh HD:/Users/tado/Documents/of_v0.8.4_osx_release/apps/Fukuyama14/FyamaWinter14/bin/data/sticon/st6.jpg",
					"presentation" : 1,
					"presentation_rect" : [ 795.0, 225.0, 105.0, 105.0 ]
				}

			}
, 			{
				"box" : 				{
					"autofit" : 1,
					"forceaspect" : 1,
					"id" : "obj-16",
					"ignoreclick" : 1,
					"maxclass" : "fpic",
					"numinlets" : 1,
					"numoutlets" : 1,
					"outlettype" : [ "jit_matrix" ],
					"patching_rect" : [ 1204.0, 186.0, 100.0, 100.0 ],
					"pic" : "Macintosh HD:/Users/tado/Documents/of_v0.8.4_osx_release/apps/Fukuyama14/FyamaWinter14/bin/data/sticon/st5.jpg",
					"presentation" : 1,
					"presentation_rect" : [ 585.0, 120.0, 105.0, 105.0 ]
				}

			}
, 			{
				"box" : 				{
					"autofit" : 1,
					"forceaspect" : 1,
					"id" : "obj-14",
					"ignoreclick" : 1,
					"maxclass" : "fpic",
					"numinlets" : 1,
					"numoutlets" : 1,
					"outlettype" : [ "jit_matrix" ],
					"patching_rect" : [ 1166.0, 531.0, 100.0, 100.0 ],
					"pic" : "Macintosh HD:/Users/tado/Documents/of_v0.8.4_osx_release/apps/Fukuyama14/FyamaWinter14/bin/data/sticon/st4.jpg",
					"presentation" : 1,
					"presentation_rect" : [ 480.0, 120.0, 105.0, 105.0 ]
				}

			}
, 			{
				"box" : 				{
					"autofit" : 1,
					"forceaspect" : 1,
					"id" : "obj-12",
					"ignoreclick" : 1,
					"maxclass" : "fpic",
					"numinlets" : 1,
					"numoutlets" : 1,
					"outlettype" : [ "jit_matrix" ],
					"patching_rect" : [ 1285.0, 566.0, 100.0, 100.0 ],
					"pic" : "Macintosh HD:/Users/tado/Documents/of_v0.8.4_osx_release/apps/Fukuyama14/FyamaWinter14/bin/data/sticon/st3.jpg",
					"presentation" : 1,
					"presentation_rect" : [ 375.0, 120.0, 105.0, 105.0 ]
				}

			}
, 			{
				"box" : 				{
					"autofit" : 1,
					"forceaspect" : 1,
					"id" : "obj-3",
					"ignoreclick" : 1,
					"maxclass" : "fpic",
					"numinlets" : 1,
					"numoutlets" : 1,
					"outlettype" : [ "jit_matrix" ],
					"patching_rect" : [ 1211.0, 175.0, 100.0, 100.0 ],
					"pic" : "Macintosh HD:/Users/tado/Documents/of_v0.8.4_osx_release/apps/Fukuyama14/FyamaWinter14/bin/data/sticon/st1.jpg",
					"presentation" : 1,
					"presentation_rect" : [ 165.0, 120.0, 105.0, 105.0 ]
				}

			}
, 			{
				"box" : 				{
					"autofit" : 1,
					"forceaspect" : 1,
					"id" : "obj-2",
					"ignoreclick" : 1,
					"maxclass" : "fpic",
					"numinlets" : 1,
					"numoutlets" : 1,
					"outlettype" : [ "jit_matrix" ],
					"patching_rect" : [ 81.0, 423.0, 100.0, 100.0 ],
					"pic" : "Macintosh HD:/Users/tado/Documents/of_v0.8.4_osx_release/apps/Fukuyama14/FyamaWinter14/bin/data/sticon/st0.jpg",
					"presentation" : 1,
					"presentation_rect" : [ 60.0, 120.0, 105.0, 105.0 ]
				}

			}
, 			{
				"box" : 				{
					"fontname" : "Helvetica Neue",
					"fontsize" : 30.0,
					"id" : "obj-93",
					"maxclass" : "comment",
					"numinlets" : 1,
					"numoutlets" : 0,
					"patching_rect" : [ 45.0, 0.0, 361.0, 41.0 ],
					"presentation" : 1,
					"presentation_rect" : [ 60.0, 15.0, 465.0, 41.0 ],
					"style" : "",
					"text" : "Realtime Effect Controler",
					"textcolor" : [ 1.0, 1.0, 1.0, 1.0 ]
				}

			}
, 			{
				"box" : 				{
					"id" : "obj-75",
					"maxclass" : "message",
					"numinlets" : 2,
					"numoutlets" : 1,
					"outlettype" : [ "" ],
					"patching_rect" : [ 930.0, 456.0, 29.5, 22.0 ],
					"style" : "",
					"text" : "8"
				}

			}
, 			{
				"box" : 				{
					"id" : "obj-76",
					"maxclass" : "newobj",
					"numinlets" : 1,
					"numoutlets" : 0,
					"patching_rect" : [ 930.0, 486.0, 39.0, 22.0 ],
					"style" : "",
					"text" : "s cch"
				}

			}
, 			{
				"box" : 				{
					"id" : "obj-77",
					"maxclass" : "newobj",
					"numinlets" : 1,
					"numoutlets" : 0,
					"patching_rect" : [ 885.0, 486.0, 41.0, 22.0 ],
					"style" : "",
					"text" : "s cval"
				}

			}
, 			{
				"box" : 				{
					"id" : "obj-78",
					"maxclass" : "slider",
					"numinlets" : 1,
					"numoutlets" : 1,
					"outlettype" : [ "" ],
					"parameter_enable" : 0,
					"patching_rect" : [ 885.0, 300.0, 20.0, 140.0 ],
					"presentation" : 1,
					"presentation_rect" : [ 810.0, 675.0, 75.0, 300.0 ],
					"style" : ""
				}

			}
, 			{
				"box" : 				{
					"id" : "obj-79",
					"maxclass" : "message",
					"numinlets" : 2,
					"numoutlets" : 1,
					"outlettype" : [ "" ],
					"patching_rect" : [ 840.0, 456.0, 29.5, 22.0 ],
					"style" : "",
					"text" : "7"
				}

			}
, 			{
				"box" : 				{
					"id" : "obj-80",
					"maxclass" : "newobj",
					"numinlets" : 1,
					"numoutlets" : 0,
					"patching_rect" : [ 840.0, 486.0, 39.0, 22.0 ],
					"style" : "",
					"text" : "s cch"
				}

			}
, 			{
				"box" : 				{
					"id" : "obj-81",
					"maxclass" : "newobj",
					"numinlets" : 1,
					"numoutlets" : 0,
					"patching_rect" : [ 795.0, 486.0, 41.0, 22.0 ],
					"style" : "",
					"text" : "s cval"
				}

			}
, 			{
				"box" : 				{
					"id" : "obj-82",
					"maxclass" : "slider",
					"numinlets" : 1,
					"numoutlets" : 1,
					"outlettype" : [ "" ],
					"parameter_enable" : 0,
					"patching_rect" : [ 795.0, 300.0, 20.0, 140.0 ],
					"presentation" : 1,
					"presentation_rect" : [ 705.0, 675.0, 75.0, 300.0 ],
					"style" : ""
				}

			}
, 			{
				"box" : 				{
					"id" : "obj-83",
					"maxclass" : "message",
					"numinlets" : 2,
					"numoutlets" : 1,
					"outlettype" : [ "" ],
					"patching_rect" : [ 750.0, 456.0, 29.5, 22.0 ],
					"style" : "",
					"text" : "6"
				}

			}
, 			{
				"box" : 				{
					"id" : "obj-84",
					"maxclass" : "newobj",
					"numinlets" : 1,
					"numoutlets" : 0,
					"patching_rect" : [ 750.0, 486.0, 39.0, 22.0 ],
					"style" : "",
					"text" : "s cch"
				}

			}
, 			{
				"box" : 				{
					"id" : "obj-85",
					"maxclass" : "newobj",
					"numinlets" : 1,
					"numoutlets" : 0,
					"patching_rect" : [ 705.0, 486.0, 41.0, 22.0 ],
					"style" : "",
					"text" : "s cval"
				}

			}
, 			{
				"box" : 				{
					"id" : "obj-86",
					"maxclass" : "slider",
					"numinlets" : 1,
					"numoutlets" : 1,
					"outlettype" : [ "" ],
					"parameter_enable" : 0,
					"patching_rect" : [ 705.0, 300.0, 20.0, 140.0 ],
					"presentation" : 1,
					"presentation_rect" : [ 600.0, 675.0, 75.0, 300.0 ],
					"style" : ""
				}

			}
, 			{
				"box" : 				{
					"id" : "obj-87",
					"maxclass" : "message",
					"numinlets" : 2,
					"numoutlets" : 1,
					"outlettype" : [ "" ],
					"patching_rect" : [ 660.0, 456.0, 29.5, 22.0 ],
					"style" : "",
					"text" : "5"
				}

			}
, 			{
				"box" : 				{
					"id" : "obj-88",
					"maxclass" : "newobj",
					"numinlets" : 1,
					"numoutlets" : 0,
					"patching_rect" : [ 660.0, 486.0, 39.0, 22.0 ],
					"style" : "",
					"text" : "s cch"
				}

			}
, 			{
				"box" : 				{
					"id" : "obj-89",
					"maxclass" : "newobj",
					"numinlets" : 1,
					"numoutlets" : 0,
					"patching_rect" : [ 615.0, 486.0, 41.0, 22.0 ],
					"style" : "",
					"text" : "s cval"
				}

			}
, 			{
				"box" : 				{
					"id" : "obj-90",
					"maxclass" : "slider",
					"numinlets" : 1,
					"numoutlets" : 1,
					"outlettype" : [ "" ],
					"parameter_enable" : 0,
					"patching_rect" : [ 615.0, 300.0, 20.0, 140.0 ],
					"presentation" : 1,
					"presentation_rect" : [ 495.0, 675.0, 75.0, 300.0 ],
					"style" : ""
				}

			}
, 			{
				"box" : 				{
					"id" : "obj-67",
					"maxclass" : "message",
					"numinlets" : 2,
					"numoutlets" : 1,
					"outlettype" : [ "" ],
					"patching_rect" : [ 570.0, 456.0, 29.5, 22.0 ],
					"style" : "",
					"text" : "4"
				}

			}
, 			{
				"box" : 				{
					"id" : "obj-68",
					"maxclass" : "newobj",
					"numinlets" : 1,
					"numoutlets" : 0,
					"patching_rect" : [ 570.0, 486.0, 39.0, 22.0 ],
					"style" : "",
					"text" : "s cch"
				}

			}
, 			{
				"box" : 				{
					"id" : "obj-69",
					"maxclass" : "newobj",
					"numinlets" : 1,
					"numoutlets" : 0,
					"patching_rect" : [ 525.0, 486.0, 41.0, 22.0 ],
					"style" : "",
					"text" : "s cval"
				}

			}
, 			{
				"box" : 				{
					"id" : "obj-70",
					"maxclass" : "slider",
					"numinlets" : 1,
					"numoutlets" : 1,
					"outlettype" : [ "" ],
					"parameter_enable" : 0,
					"patching_rect" : [ 525.0, 300.0, 20.0, 140.0 ],
					"presentation" : 1,
					"presentation_rect" : [ 390.0, 675.0, 75.0, 300.0 ],
					"style" : ""
				}

			}
, 			{
				"box" : 				{
					"id" : "obj-71",
					"maxclass" : "message",
					"numinlets" : 2,
					"numoutlets" : 1,
					"outlettype" : [ "" ],
					"patching_rect" : [ 480.0, 456.0, 29.5, 22.0 ],
					"style" : "",
					"text" : "3"
				}

			}
, 			{
				"box" : 				{
					"id" : "obj-72",
					"maxclass" : "newobj",
					"numinlets" : 1,
					"numoutlets" : 0,
					"patching_rect" : [ 480.0, 486.0, 39.0, 22.0 ],
					"style" : "",
					"text" : "s cch"
				}

			}
, 			{
				"box" : 				{
					"id" : "obj-73",
					"maxclass" : "newobj",
					"numinlets" : 1,
					"numoutlets" : 0,
					"patching_rect" : [ 435.0, 486.0, 41.0, 22.0 ],
					"style" : "",
					"text" : "s cval"
				}

			}
, 			{
				"box" : 				{
					"id" : "obj-74",
					"maxclass" : "slider",
					"numinlets" : 1,
					"numoutlets" : 1,
					"outlettype" : [ "" ],
					"parameter_enable" : 0,
					"patching_rect" : [ 435.0, 300.0, 20.0, 140.0 ],
					"presentation" : 1,
					"presentation_rect" : [ 285.0, 675.0, 75.0, 300.0 ],
					"style" : ""
				}

			}
, 			{
				"box" : 				{
					"id" : "obj-63",
					"maxclass" : "message",
					"numinlets" : 2,
					"numoutlets" : 1,
					"outlettype" : [ "" ],
					"patching_rect" : [ 390.0, 456.0, 29.5, 22.0 ],
					"style" : "",
					"text" : "2"
				}

			}
, 			{
				"box" : 				{
					"id" : "obj-64",
					"maxclass" : "newobj",
					"numinlets" : 1,
					"numoutlets" : 0,
					"patching_rect" : [ 390.0, 486.0, 39.0, 22.0 ],
					"style" : "",
					"text" : "s cch"
				}

			}
, 			{
				"box" : 				{
					"id" : "obj-65",
					"maxclass" : "newobj",
					"numinlets" : 1,
					"numoutlets" : 0,
					"patching_rect" : [ 345.0, 486.0, 41.0, 22.0 ],
					"style" : "",
					"text" : "s cval"
				}

			}
, 			{
				"box" : 				{
					"id" : "obj-66",
					"maxclass" : "slider",
					"numinlets" : 1,
					"numoutlets" : 1,
					"outlettype" : [ "" ],
					"parameter_enable" : 0,
					"patching_rect" : [ 345.0, 300.0, 20.0, 140.0 ],
					"presentation" : 1,
					"presentation_rect" : [ 180.0, 675.0, 75.0, 300.0 ],
					"style" : ""
				}

			}
, 			{
				"box" : 				{
					"id" : "obj-62",
					"maxclass" : "newobj",
					"numinlets" : 0,
					"numoutlets" : 1,
					"outlettype" : [ "" ],
					"patching_rect" : [ 465.0, 705.0, 37.0, 22.0 ],
					"style" : "",
					"text" : "r cch"
				}

			}
, 			{
				"box" : 				{
					"id" : "obj-61",
					"maxclass" : "newobj",
					"numinlets" : 0,
					"numoutlets" : 1,
					"outlettype" : [ "" ],
					"patching_rect" : [ 420.0, 705.0, 39.0, 22.0 ],
					"style" : "",
					"text" : "r cval"
				}

			}
, 			{
				"box" : 				{
					"id" : "obj-60",
					"maxclass" : "message",
					"numinlets" : 2,
					"numoutlets" : 1,
					"outlettype" : [ "" ],
					"patching_rect" : [ 300.0, 456.0, 29.5, 22.0 ],
					"style" : "",
					"text" : "1"
				}

			}
, 			{
				"box" : 				{
					"id" : "obj-58",
					"maxclass" : "newobj",
					"numinlets" : 1,
					"numoutlets" : 0,
					"patching_rect" : [ 300.0, 486.0, 39.0, 22.0 ],
					"style" : "",
					"text" : "s cch"
				}

			}
, 			{
				"box" : 				{
					"id" : "obj-57",
					"maxclass" : "newobj",
					"numinlets" : 1,
					"numoutlets" : 0,
					"patching_rect" : [ 255.0, 486.0, 41.0, 22.0 ],
					"style" : "",
					"text" : "s cval"
				}

			}
, 			{
				"box" : 				{
					"id" : "obj-53",
					"maxclass" : "number",
					"numinlets" : 1,
					"numoutlets" : 2,
					"outlettype" : [ "", "bang" ],
					"parameter_enable" : 0,
					"patching_rect" : [ 360.0, 662.0, 50.0, 22.0 ],
					"style" : ""
				}

			}
, 			{
				"box" : 				{
					"id" : "obj-49",
					"maxclass" : "slider",
					"numinlets" : 1,
					"numoutlets" : 1,
					"outlettype" : [ "" ],
					"parameter_enable" : 0,
					"patching_rect" : [ 255.0, 300.0, 20.0, 140.0 ],
					"presentation" : 1,
					"presentation_rect" : [ 75.0, 675.0, 75.0, 300.0 ],
					"style" : ""
				}

			}
, 			{
				"box" : 				{
					"id" : "obj-41",
					"maxclass" : "number",
					"numinlets" : 1,
					"numoutlets" : 2,
					"outlettype" : [ "", "bang" ],
					"parameter_enable" : 0,
					"patching_rect" : [ 135.0, 585.0, 50.0, 22.0 ],
					"style" : ""
				}

			}
, 			{
				"box" : 				{
					"id" : "obj-37",
					"maxclass" : "number",
					"numinlets" : 1,
					"numoutlets" : 2,
					"outlettype" : [ "", "bang" ],
					"parameter_enable" : 0,
					"patching_rect" : [ 97.0, 542.0, 50.0, 22.0 ],
					"style" : ""
				}

			}
, 			{
				"box" : 				{
					"id" : "obj-38",
					"maxclass" : "number",
					"numinlets" : 1,
					"numoutlets" : 2,
					"outlettype" : [ "", "bang" ],
					"parameter_enable" : 0,
					"patching_rect" : [ 45.0, 542.0, 50.0, 22.0 ],
					"style" : ""
				}

			}
, 			{
				"box" : 				{
					"id" : "obj-35",
					"maxclass" : "button",
					"numinlets" : 1,
					"numoutlets" : 1,
					"outlettype" : [ "bang" ],
					"patching_rect" : [ 165.0, 540.0, 24.0, 24.0 ],
					"style" : ""
				}

			}
, 			{
				"box" : 				{
					"id" : "obj-34",
					"maxclass" : "newobj",
					"numinlets" : 2,
					"numoutlets" : 2,
					"outlettype" : [ "bang", "" ],
					"patching_rect" : [ 165.0, 510.0, 36.0, 22.0 ],
					"style" : "",
					"text" : "sel 1"
				}

			}
, 			{
				"box" : 				{
					"id" : "obj-30",
					"maxclass" : "newobj",
					"numinlets" : 2,
					"numoutlets" : 1,
					"outlettype" : [ "int" ],
					"patching_rect" : [ 83.0, 510.0, 34.0, 22.0 ],
					"style" : "",
					"text" : "+ 53"
				}

			}
, 			{
				"box" : 				{
					"id" : "obj-29",
					"maxclass" : "newobj",
					"numinlets" : 2,
					"numoutlets" : 1,
					"outlettype" : [ "int" ],
					"patching_rect" : [ 45.0, 510.0, 29.5, 22.0 ],
					"style" : "",
					"text" : "+ 1"
				}

			}
, 			{
				"box" : 				{
					"id" : "obj-28",
					"maxclass" : "newobj",
					"numinlets" : 1,
					"numoutlets" : 3,
					"outlettype" : [ "int", "int", "int" ],
					"patching_rect" : [ 45.0, 480.0, 79.0, 22.0 ],
					"style" : "",
					"text" : "unpack 0 0 0"
				}

			}
, 			{
				"box" : 				{
					"bgcolor" : [ 0.145098, 0.145098, 0.145098, 1.0 ],
					"elementcolor" : [ 0.145456, 0.145456, 0.145456, 1.0 ],
					"id" : "obj-22",
					"maxclass" : "matrixctrl",
					"numinlets" : 1,
					"numoutlets" : 2,
					"one/matrix" : 1,
					"outlettype" : [ "list", "list" ],
					"parameter_enable" : 0,
					"patching_rect" : [ 45.0, 45.0, 390.0, 240.0 ],
					"presentation" : 1,
					"presentation_rect" : [ 60.0, 120.0, 840.0, 525.0 ],
					"rows" : 5,
					"style" : ""
				}

			}
, 			{
				"box" : 				{
					"id" : "obj-10",
					"maxclass" : "button",
					"numinlets" : 1,
					"numoutlets" : 1,
					"outlettype" : [ "bang" ],
					"patching_rect" : [ 240.0, 758.0, 24.0, 24.0 ],
					"style" : ""
				}

			}
, 			{
				"box" : 				{
					"id" : "obj-13",
					"maxclass" : "newobj",
					"numinlets" : 3,
					"numoutlets" : 1,
					"outlettype" : [ "" ],
					"patching_rect" : [ 240.0, 789.0, 99.0, 22.0 ],
					"style" : "",
					"text" : "pack /control 0 0"
				}

			}
, 			{
				"box" : 				{
					"id" : "obj-6",
					"maxclass" : "number",
					"numinlets" : 1,
					"numoutlets" : 2,
					"outlettype" : [ "", "bang" ],
					"parameter_enable" : 0,
					"patching_rect" : [ 300.0, 662.0, 50.0, 22.0 ],
					"style" : ""
				}

			}
, 			{
				"box" : 				{
					"id" : "obj-9",
					"maxclass" : "number",
					"numinlets" : 1,
					"numoutlets" : 2,
					"outlettype" : [ "", "bang" ],
					"parameter_enable" : 0,
					"patching_rect" : [ 240.0, 662.0, 50.0, 22.0 ],
					"style" : ""
				}

			}
, 			{
				"box" : 				{
					"id" : "obj-4",
					"maxclass" : "newobj",
					"numinlets" : 1,
					"numoutlets" : 3,
					"outlettype" : [ "int", "int", "int" ],
					"patching_rect" : [ 240.0, 631.0, 139.0, 22.0 ],
					"style" : "",
					"text" : "ctlin"
				}

			}
, 			{
				"box" : 				{
					"id" : "obj-1",
					"maxclass" : "newobj",
					"numinlets" : 2,
					"numoutlets" : 2,
					"outlettype" : [ "bang", "" ],
					"patching_rect" : [ 105.0, 705.0, 49.0, 22.0 ],
					"style" : "",
					"text" : "sel 0"
				}

			}
, 			{
				"box" : 				{
					"id" : "obj-26",
					"maxclass" : "button",
					"numinlets" : 1,
					"numoutlets" : 1,
					"outlettype" : [ "bang" ],
					"patching_rect" : [ 52.0, 759.0, 24.0, 24.0 ],
					"style" : ""
				}

			}
, 			{
				"box" : 				{
					"id" : "obj-45",
					"maxclass" : "number",
					"numinlets" : 1,
					"numoutlets" : 2,
					"outlettype" : [ "", "bang" ],
					"parameter_enable" : 0,
					"patching_rect" : [ 165.0, 662.0, 50.0, 22.0 ],
					"style" : ""
				}

			}
, 			{
				"box" : 				{
					"id" : "obj-44",
					"maxclass" : "number",
					"numinlets" : 1,
					"numoutlets" : 2,
					"outlettype" : [ "", "bang" ],
					"parameter_enable" : 0,
					"patching_rect" : [ 105.0, 662.0, 50.0, 22.0 ],
					"style" : ""
				}

			}
, 			{
				"box" : 				{
					"id" : "obj-43",
					"maxclass" : "number",
					"numinlets" : 1,
					"numoutlets" : 2,
					"outlettype" : [ "", "bang" ],
					"parameter_enable" : 0,
					"patching_rect" : [ 45.0, 662.0, 50.0, 22.0 ],
					"style" : ""
				}

			}
, 			{
				"box" : 				{
					"id" : "obj-8",
					"maxclass" : "newobj",
					"numinlets" : 3,
					"numoutlets" : 1,
					"outlettype" : [ "" ],
					"patching_rect" : [ 52.0, 789.0, 89.0, 22.0 ],
					"style" : "",
					"text" : "pack /state 0 0"
				}

			}
, 			{
				"box" : 				{
					"id" : "obj-7",
					"maxclass" : "newobj",
					"numinlets" : 1,
					"numoutlets" : 0,
					"patching_rect" : [ 52.0, 855.0, 140.0, 22.0 ],
					"style" : "",
					"text" : "udpsend 127.0.0.1 9000"
				}

			}
, 			{
				"box" : 				{
					"fontname" : "Arial",
					"fontsize" : 13.0,
					"id" : "obj-15",
					"maxclass" : "newobj",
					"numinlets" : 1,
					"numoutlets" : 3,
					"outlettype" : [ "int", "int", "int" ],
					"patching_rect" : [ 45.0, 630.0, 139.0, 23.0 ],
					"style" : "",
					"text" : "notein"
				}

			}
 ],
		"lines" : [ 			{
				"patchline" : 				{
					"destination" : [ "obj-26", 0 ],
					"disabled" : 0,
					"hidden" : 0,
					"source" : [ "obj-1", 0 ]
				}

			}
, 			{
				"patchline" : 				{
					"destination" : [ "obj-13", 0 ],
					"disabled" : 0,
					"hidden" : 0,
					"source" : [ "obj-10", 0 ]
				}

			}
, 			{
				"patchline" : 				{
					"destination" : [ "obj-7", 0 ],
					"disabled" : 0,
					"hidden" : 0,
					"source" : [ "obj-13", 0 ]
				}

			}
, 			{
				"patchline" : 				{
					"destination" : [ "obj-43", 0 ],
					"disabled" : 0,
					"hidden" : 0,
					"source" : [ "obj-15", 0 ]
				}

			}
, 			{
				"patchline" : 				{
					"destination" : [ "obj-44", 0 ],
					"disabled" : 0,
					"hidden" : 0,
					"source" : [ "obj-15", 1 ]
				}

			}
, 			{
				"patchline" : 				{
					"destination" : [ "obj-45", 0 ],
					"disabled" : 0,
					"hidden" : 0,
					"source" : [ "obj-15", 2 ]
				}

			}
, 			{
				"patchline" : 				{
					"destination" : [ "obj-28", 0 ],
					"disabled" : 0,
					"hidden" : 0,
					"source" : [ "obj-22", 0 ]
				}

			}
, 			{
				"patchline" : 				{
					"destination" : [ "obj-8", 0 ],
					"disabled" : 0,
					"hidden" : 0,
					"source" : [ "obj-26", 0 ]
				}

			}
, 			{
				"patchline" : 				{
					"destination" : [ "obj-29", 0 ],
					"disabled" : 0,
					"hidden" : 0,
					"source" : [ "obj-28", 0 ]
				}

			}
, 			{
				"patchline" : 				{
					"destination" : [ "obj-30", 0 ],
					"disabled" : 0,
					"hidden" : 0,
					"source" : [ "obj-28", 1 ]
				}

			}
, 			{
				"patchline" : 				{
					"destination" : [ "obj-34", 0 ],
					"disabled" : 0,
					"hidden" : 0,
					"source" : [ "obj-28", 2 ]
				}

			}
, 			{
				"patchline" : 				{
					"destination" : [ "obj-38", 0 ],
					"disabled" : 0,
					"hidden" : 0,
					"source" : [ "obj-29", 0 ]
				}

			}
, 			{
				"patchline" : 				{
					"destination" : [ "obj-37", 0 ],
					"disabled" : 0,
					"hidden" : 0,
					"source" : [ "obj-30", 0 ]
				}

			}
, 			{
				"patchline" : 				{
					"destination" : [ "obj-35", 0 ],
					"disabled" : 0,
					"hidden" : 0,
					"source" : [ "obj-34", 0 ]
				}

			}
, 			{
				"patchline" : 				{
					"destination" : [ "obj-37", 0 ],
					"disabled" : 0,
					"hidden" : 0,
					"source" : [ "obj-35", 0 ]
				}

			}
, 			{
				"patchline" : 				{
					"destination" : [ "obj-38", 0 ],
					"disabled" : 0,
					"hidden" : 0,
					"source" : [ "obj-35", 0 ]
				}

			}
, 			{
				"patchline" : 				{
					"destination" : [ "obj-43", 0 ],
					"disabled" : 0,
					"hidden" : 0,
					"source" : [ "obj-37", 0 ]
				}

			}
, 			{
				"patchline" : 				{
					"destination" : [ "obj-26", 0 ],
					"disabled" : 0,
					"hidden" : 0,
					"source" : [ "obj-38", 0 ]
				}

			}
, 			{
				"patchline" : 				{
					"destination" : [ "obj-45", 0 ],
					"disabled" : 0,
					"hidden" : 0,
					"source" : [ "obj-38", 0 ]
				}

			}
, 			{
				"patchline" : 				{
					"destination" : [ "obj-53", 0 ],
					"disabled" : 0,
					"hidden" : 0,
					"source" : [ "obj-4", 2 ]
				}

			}
, 			{
				"patchline" : 				{
					"destination" : [ "obj-6", 0 ],
					"disabled" : 0,
					"hidden" : 0,
					"source" : [ "obj-4", 1 ]
				}

			}
, 			{
				"patchline" : 				{
					"destination" : [ "obj-9", 0 ],
					"disabled" : 0,
					"hidden" : 0,
					"source" : [ "obj-4", 0 ]
				}

			}
, 			{
				"patchline" : 				{
					"destination" : [ "obj-8", 1 ],
					"disabled" : 0,
					"hidden" : 0,
					"source" : [ "obj-43", 0 ]
				}

			}
, 			{
				"patchline" : 				{
					"destination" : [ "obj-1", 0 ],
					"disabled" : 0,
					"hidden" : 0,
					"source" : [ "obj-44", 0 ]
				}

			}
, 			{
				"patchline" : 				{
					"destination" : [ "obj-8", 2 ],
					"disabled" : 0,
					"hidden" : 0,
					"source" : [ "obj-45", 0 ]
				}

			}
, 			{
				"patchline" : 				{
					"destination" : [ "obj-57", 0 ],
					"disabled" : 0,
					"hidden" : 0,
					"source" : [ "obj-49", 0 ]
				}

			}
, 			{
				"patchline" : 				{
					"destination" : [ "obj-60", 0 ],
					"disabled" : 0,
					"hidden" : 0,
					"source" : [ "obj-49", 0 ]
				}

			}
, 			{
				"patchline" : 				{
					"destination" : [ "obj-13", 1 ],
					"disabled" : 0,
					"hidden" : 0,
					"source" : [ "obj-53", 0 ]
				}

			}
, 			{
				"patchline" : 				{
					"destination" : [ "obj-58", 0 ],
					"disabled" : 0,
					"hidden" : 0,
					"source" : [ "obj-60", 0 ]
				}

			}
, 			{
				"patchline" : 				{
					"destination" : [ "obj-10", 0 ],
					"disabled" : 0,
					"hidden" : 0,
					"source" : [ "obj-61", 0 ]
				}

			}
, 			{
				"patchline" : 				{
					"destination" : [ "obj-13", 2 ],
					"disabled" : 0,
					"hidden" : 0,
					"source" : [ "obj-61", 0 ]
				}

			}
, 			{
				"patchline" : 				{
					"destination" : [ "obj-13", 1 ],
					"disabled" : 0,
					"hidden" : 0,
					"source" : [ "obj-62", 0 ]
				}

			}
, 			{
				"patchline" : 				{
					"destination" : [ "obj-64", 0 ],
					"disabled" : 0,
					"hidden" : 0,
					"source" : [ "obj-63", 0 ]
				}

			}
, 			{
				"patchline" : 				{
					"destination" : [ "obj-63", 0 ],
					"disabled" : 0,
					"hidden" : 0,
					"source" : [ "obj-66", 0 ]
				}

			}
, 			{
				"patchline" : 				{
					"destination" : [ "obj-65", 0 ],
					"disabled" : 0,
					"hidden" : 0,
					"source" : [ "obj-66", 0 ]
				}

			}
, 			{
				"patchline" : 				{
					"destination" : [ "obj-68", 0 ],
					"disabled" : 0,
					"hidden" : 0,
					"source" : [ "obj-67", 0 ]
				}

			}
, 			{
				"patchline" : 				{
					"destination" : [ "obj-67", 0 ],
					"disabled" : 0,
					"hidden" : 0,
					"source" : [ "obj-70", 0 ]
				}

			}
, 			{
				"patchline" : 				{
					"destination" : [ "obj-69", 0 ],
					"disabled" : 0,
					"hidden" : 0,
					"source" : [ "obj-70", 0 ]
				}

			}
, 			{
				"patchline" : 				{
					"destination" : [ "obj-72", 0 ],
					"disabled" : 0,
					"hidden" : 0,
					"source" : [ "obj-71", 0 ]
				}

			}
, 			{
				"patchline" : 				{
					"destination" : [ "obj-71", 0 ],
					"disabled" : 0,
					"hidden" : 0,
					"source" : [ "obj-74", 0 ]
				}

			}
, 			{
				"patchline" : 				{
					"destination" : [ "obj-73", 0 ],
					"disabled" : 0,
					"hidden" : 0,
					"source" : [ "obj-74", 0 ]
				}

			}
, 			{
				"patchline" : 				{
					"destination" : [ "obj-76", 0 ],
					"disabled" : 0,
					"hidden" : 0,
					"source" : [ "obj-75", 0 ]
				}

			}
, 			{
				"patchline" : 				{
					"destination" : [ "obj-75", 0 ],
					"disabled" : 0,
					"hidden" : 0,
					"source" : [ "obj-78", 0 ]
				}

			}
, 			{
				"patchline" : 				{
					"destination" : [ "obj-77", 0 ],
					"disabled" : 0,
					"hidden" : 0,
					"source" : [ "obj-78", 0 ]
				}

			}
, 			{
				"patchline" : 				{
					"destination" : [ "obj-80", 0 ],
					"disabled" : 0,
					"hidden" : 0,
					"source" : [ "obj-79", 0 ]
				}

			}
, 			{
				"patchline" : 				{
					"destination" : [ "obj-7", 0 ],
					"disabled" : 0,
					"hidden" : 0,
					"source" : [ "obj-8", 0 ]
				}

			}
, 			{
				"patchline" : 				{
					"destination" : [ "obj-79", 0 ],
					"disabled" : 0,
					"hidden" : 0,
					"source" : [ "obj-82", 0 ]
				}

			}
, 			{
				"patchline" : 				{
					"destination" : [ "obj-81", 0 ],
					"disabled" : 0,
					"hidden" : 0,
					"source" : [ "obj-82", 0 ]
				}

			}
, 			{
				"patchline" : 				{
					"destination" : [ "obj-84", 0 ],
					"disabled" : 0,
					"hidden" : 0,
					"source" : [ "obj-83", 0 ]
				}

			}
, 			{
				"patchline" : 				{
					"destination" : [ "obj-83", 0 ],
					"disabled" : 0,
					"hidden" : 0,
					"source" : [ "obj-86", 0 ]
				}

			}
, 			{
				"patchline" : 				{
					"destination" : [ "obj-85", 0 ],
					"disabled" : 0,
					"hidden" : 0,
					"source" : [ "obj-86", 0 ]
				}

			}
, 			{
				"patchline" : 				{
					"destination" : [ "obj-88", 0 ],
					"disabled" : 0,
					"hidden" : 0,
					"source" : [ "obj-87", 0 ]
				}

			}
, 			{
				"patchline" : 				{
					"destination" : [ "obj-10", 0 ],
					"disabled" : 0,
					"hidden" : 0,
					"source" : [ "obj-9", 0 ]
				}

			}
, 			{
				"patchline" : 				{
					"destination" : [ "obj-13", 2 ],
					"disabled" : 0,
					"hidden" : 0,
					"source" : [ "obj-9", 0 ]
				}

			}
, 			{
				"patchline" : 				{
					"destination" : [ "obj-87", 0 ],
					"disabled" : 0,
					"hidden" : 0,
					"source" : [ "obj-90", 0 ]
				}

			}
, 			{
				"patchline" : 				{
					"destination" : [ "obj-89", 0 ],
					"disabled" : 0,
					"hidden" : 0,
					"source" : [ "obj-90", 0 ]
				}

			}
 ],
		"dependency_cache" : [ 			{
				"name" : "st0.jpg",
				"bootpath" : "~/Documents/of_v0.8.4_osx_release/apps/Fukuyama14/FyamaWinter14/bin/data/sticon",
				"patcherrelativepath" : "../../../Fukuyama14/FyamaWinter14/bin/data/sticon",
				"type" : "JPEG",
				"implicit" : 1
			}
, 			{
				"name" : "st1.jpg",
				"bootpath" : "~/Documents/of_v0.8.4_osx_release/apps/Fukuyama14/FyamaWinter14/bin/data/sticon",
				"patcherrelativepath" : "../../../Fukuyama14/FyamaWinter14/bin/data/sticon",
				"type" : "JPEG",
				"implicit" : 1
			}
, 			{
				"name" : "st3.jpg",
				"bootpath" : "~/Documents/of_v0.8.4_osx_release/apps/Fukuyama14/FyamaWinter14/bin/data/sticon",
				"patcherrelativepath" : "../../../Fukuyama14/FyamaWinter14/bin/data/sticon",
				"type" : "JPEG",
				"implicit" : 1
			}
, 			{
				"name" : "st4.jpg",
				"bootpath" : "~/Documents/of_v0.8.4_osx_release/apps/Fukuyama14/FyamaWinter14/bin/data/sticon",
				"patcherrelativepath" : "../../../Fukuyama14/FyamaWinter14/bin/data/sticon",
				"type" : "JPEG",
				"implicit" : 1
			}
, 			{
				"name" : "st5.jpg",
				"bootpath" : "~/Documents/of_v0.8.4_osx_release/apps/Fukuyama14/FyamaWinter14/bin/data/sticon",
				"patcherrelativepath" : "../../../Fukuyama14/FyamaWinter14/bin/data/sticon",
				"type" : "JPEG",
				"implicit" : 1
			}
, 			{
				"name" : "st6.jpg",
				"bootpath" : "~/Documents/of_v0.8.4_osx_release/apps/Fukuyama14/FyamaWinter14/bin/data/sticon",
				"patcherrelativepath" : "../../../Fukuyama14/FyamaWinter14/bin/data/sticon",
				"type" : "JPEG",
				"implicit" : 1
			}
, 			{
				"name" : "st7.jpg",
				"bootpath" : "~/Documents/of_v0.8.4_osx_release/apps/Fukuyama14/FyamaWinter14/bin/data/sticon",
				"patcherrelativepath" : "../../../Fukuyama14/FyamaWinter14/bin/data/sticon",
				"type" : "JPEG",
				"implicit" : 1
			}
, 			{
				"name" : "st8.jpg",
				"bootpath" : "~/Documents/of_v0.8.4_osx_release/apps/Fukuyama14/FyamaWinter14/bin/data/sticon",
				"patcherrelativepath" : "../../../Fukuyama14/FyamaWinter14/bin/data/sticon",
				"type" : "JPEG",
				"implicit" : 1
			}
, 			{
				"name" : "st9.jpg",
				"bootpath" : "~/Documents/of_v0.8.4_osx_release/apps/Fukuyama14/FyamaWinter14/bin/data/sticon",
				"patcherrelativepath" : "../../../Fukuyama14/FyamaWinter14/bin/data/sticon",
				"type" : "JPEG",
				"implicit" : 1
			}
, 			{
				"name" : "st2.jpg",
				"bootpath" : "~/Documents/of_v0.8.4_osx_release/apps/Fukuyama14/FyamaWinter14/bin/data/sticon",
				"patcherrelativepath" : "../../../Fukuyama14/FyamaWinter14/bin/data/sticon",
				"type" : "JPEG",
				"implicit" : 1
			}
, 			{
				"name" : "st10.jpg",
				"bootpath" : "~/Documents/of_v0.8.4_osx_release/apps/Fukuyama14/FyamaWinter14/bin/data/sticon",
				"patcherrelativepath" : "../../../Fukuyama14/FyamaWinter14/bin/data/sticon",
				"type" : "JPEG",
				"implicit" : 1
			}
, 			{
				"name" : "st11.jpg",
				"bootpath" : "~/Documents/of_v0.8.4_osx_release/apps/Fukuyama14/FyamaWinter14/bin/data/sticon",
				"patcherrelativepath" : "../../../Fukuyama14/FyamaWinter14/bin/data/sticon",
				"type" : "JPEG",
				"implicit" : 1
			}
, 			{
				"name" : "st12.jpg",
				"bootpath" : "~/Documents/of_v0.8.4_osx_release/apps/Fukuyama14/FyamaWinter14/bin/data/sticon",
				"patcherrelativepath" : "../../../Fukuyama14/FyamaWinter14/bin/data/sticon",
				"type" : "JPEG",
				"implicit" : 1
			}
, 			{
				"name" : "st13.jpg",
				"bootpath" : "~/Documents/of_v0.8.4_osx_release/apps/Fukuyama14/FyamaWinter14/bin/data/sticon",
				"patcherrelativepath" : "../../../Fukuyama14/FyamaWinter14/bin/data/sticon",
				"type" : "JPEG",
				"implicit" : 1
			}
, 			{
				"name" : "st14.jpg",
				"bootpath" : "~/Documents/of_v0.8.4_osx_release/apps/Fukuyama14/FyamaWinter14/bin/data/sticon",
				"patcherrelativepath" : "../../../Fukuyama14/FyamaWinter14/bin/data/sticon",
				"type" : "JPEG",
				"implicit" : 1
			}
, 			{
				"name" : "st19.jpg",
				"bootpath" : "~/Documents/of_v0.8.4_osx_release/apps/Fukuyama14/FyamaWinter14/bin/data/sticon",
				"patcherrelativepath" : "../../../Fukuyama14/FyamaWinter14/bin/data/sticon",
				"type" : "JPEG",
				"implicit" : 1
			}
, 			{
				"name" : "st20.jpg",
				"bootpath" : "~/Documents/of_v0.8.4_osx_release/apps/Fukuyama14/FyamaWinter14/bin/data/sticon",
				"patcherrelativepath" : "../../../Fukuyama14/FyamaWinter14/bin/data/sticon",
				"type" : "JPEG",
				"implicit" : 1
			}
, 			{
				"name" : "st28.jpg",
				"bootpath" : "~/Documents/of_v0.8.4_osx_release/apps/Fukuyama14/FyamaWinter14/bin/data/sticon",
				"patcherrelativepath" : "../../../Fukuyama14/FyamaWinter14/bin/data/sticon",
				"type" : "JPEG",
				"implicit" : 1
			}
, 			{
				"name" : "st22.jpg",
				"bootpath" : "~/Documents/of_v0.8.4_osx_release/apps/Fukuyama14/FyamaWinter14/bin/data/sticon",
				"patcherrelativepath" : "../../../Fukuyama14/FyamaWinter14/bin/data/sticon",
				"type" : "JPEG",
				"implicit" : 1
			}
, 			{
				"name" : "st23.jpg",
				"bootpath" : "~/Documents/of_v0.8.4_osx_release/apps/Fukuyama14/FyamaWinter14/bin/data/sticon",
				"patcherrelativepath" : "../../../Fukuyama14/FyamaWinter14/bin/data/sticon",
				"type" : "JPEG",
				"implicit" : 1
			}
, 			{
				"name" : "st24.jpg",
				"bootpath" : "~/Documents/of_v0.8.4_osx_release/apps/Fukuyama14/FyamaWinter14/bin/data/sticon",
				"patcherrelativepath" : "../../../Fukuyama14/FyamaWinter14/bin/data/sticon",
				"type" : "JPEG",
				"implicit" : 1
			}
, 			{
				"name" : "st26.jpg",
				"bootpath" : "~/Documents/of_v0.8.4_osx_release/apps/Fukuyama14/FyamaWinter14/bin/data/sticon",
				"patcherrelativepath" : "../../../Fukuyama14/FyamaWinter14/bin/data/sticon",
				"type" : "JPEG",
				"implicit" : 1
			}
, 			{
				"name" : "st29.jpg",
				"bootpath" : "~/Documents/of_v0.8.4_osx_release/apps/Fukuyama14/FyamaWinter14/bin/data/sticon",
				"patcherrelativepath" : "../../../Fukuyama14/FyamaWinter14/bin/data/sticon",
				"type" : "JPEG",
				"implicit" : 1
			}
, 			{
				"name" : "st30.jpg",
				"bootpath" : "~/Documents/of_v0.8.4_osx_release/apps/Fukuyama14/FyamaWinter14/bin/data/sticon",
				"patcherrelativepath" : "../../../Fukuyama14/FyamaWinter14/bin/data/sticon",
				"type" : "JPEG",
				"implicit" : 1
			}
, 			{
				"name" : "st31.jpg",
				"bootpath" : "~/Documents/of_v0.8.4_osx_release/apps/Fukuyama14/FyamaWinter14/bin/data/sticon",
				"patcherrelativepath" : "../../../Fukuyama14/FyamaWinter14/bin/data/sticon",
				"type" : "JPEG",
				"implicit" : 1
			}
, 			{
				"name" : "st32.jpg",
				"bootpath" : "~/Documents/of_v0.8.4_osx_release/apps/Fukuyama14/FyamaWinter14/bin/data/sticon",
				"patcherrelativepath" : "../../../Fukuyama14/FyamaWinter14/bin/data/sticon",
				"type" : "JPEG",
				"implicit" : 1
			}
, 			{
				"name" : "st33.jpg",
				"bootpath" : "~/Documents/of_v0.8.4_osx_release/apps/FM14New/FyamaWinter14/bin/data/sticon",
				"patcherrelativepath" : "../bin/data/sticon",
				"type" : "JPEG",
				"implicit" : 1
			}
, 			{
				"name" : "st34.jpg",
				"bootpath" : "~/Documents/of_v0.8.4_osx_release/apps/FM14New/FyamaWinter14/bin/data/sticon",
				"patcherrelativepath" : "../bin/data/sticon",
				"type" : "JPEG",
				"implicit" : 1
			}
, 			{
				"name" : "st35.jpg",
				"bootpath" : "~/Documents/of_v0.8.4_osx_release/apps/FM14New/FyamaWinter14/bin/data/sticon",
				"patcherrelativepath" : "../bin/data/sticon",
				"type" : "JPEG",
				"implicit" : 1
			}
, 			{
				"name" : "st36.jpg",
				"bootpath" : "~/Documents/of_v0.8.4_osx_release/apps/FM14New/FyamaWinter14/bin/data/sticon",
				"patcherrelativepath" : "../bin/data/sticon",
				"type" : "JPEG",
				"implicit" : 1
			}
, 			{
				"name" : "st37.jpg",
				"bootpath" : "~/Documents/of_v0.8.4_osx_release/apps/FM14New/FyamaWinter14/bin/data/sticon",
				"patcherrelativepath" : "../bin/data/sticon",
				"type" : "JPEG",
				"implicit" : 1
			}
, 			{
				"name" : "st38.jpg",
				"bootpath" : "~/Documents/of_v0.8.4_osx_release/apps/FM14New/FyamaWinter14/bin/data/sticon",
				"patcherrelativepath" : "../bin/data/sticon",
				"type" : "JPEG",
				"implicit" : 1
			}
 ],
		"embedsnapshot" : 0
	}

}
